<?xml version="1.0" standalone="no"?>
<!DOCTYPE svg PUBLIC "-//W3C//DTD SVG 20010904//EN"
 "http://www.w3.org/TR/2001/REC-SVG-20010904/DTD/svg10.dtd">
<svg version="1.0" xmlns="http://www.w3.org/2000/svg"
 width="500.000000pt" height="500.000000pt" viewBox="0 0 500.000000 500.000000"
 preserveAspectRatio="xMidYMid meet">
<metadata>
Created by potrace 1.14, written by Peter Selinger 2001-2017
</metadata>
<g transform="translate(0.000000,500.000000) scale(0.100000,-0.100000)"
fill="#000000" stroke="none">
<path d="M1983 3018 l2 -253 500 0 c275 -1 507 1 516 3 15 3 17 30 17 253 0
137 -2 249 -5 249 -3 0 -56 -51 -118 -112 -62 -62 -126 -126 -142 -141 l-30
-28 -112 112 -111 112 -112 -112 -111 -112 -35 33 c-18 18 -82 81 -141 141
-60 59 -111 107 -114 107 -3 0 -5 -114 -4 -252z"/>
<path d="M1789 2656 c-2 -2 -18 -6 -35 -9 -53 -8 -120 -43 -168 -87 -95 -88
-119 -259 -53 -386 19 -38 86 -99 131 -121 l33 -15 -108 -155 c-60 -85 -109
-156 -109 -158 0 -1 34 -1 76 0 52 1 79 6 84 16 5 7 48 71 97 141 l88 128 145
-3 145 -2 0 -132 c0 -72 4 -135 8 -139 4 -5 35 -9 67 -10 l60 -1 0 383 0 383
-64 0 c-41 0 -66 -5 -68 -12 -2 -7 -4 -87 -4 -179 1 -104 -3 -169 -9 -171 -5
-2 -76 -3 -158 -1 -138 2 -151 3 -203 29 -70 34 -106 86 -110 156 -3 73 14
125 53 164 47 47 112 64 253 67 l115 3 2 58 3 57 -134 0 c-73 0 -135 -2 -137
-4z"/>
<path d="M2111 2601 l2 -59 154 0 c85 0 156 -2 159 -4 2 -3 4 -185 4 -406 1
-305 4 -401 13 -404 7 -2 37 -4 67 -4 l55 1 2 404 c1 222 4 406 7 408 3 3 74
5 159 5 l155 1 1 58 1 59 -390 0 -390 0 1 -59z"/>
<path d="M2943 2604 l2 -59 114 -2 c141 -3 207 -21 254 -68 90 -90 66 -260
-45 -316 -55 -28 -84 -32 -248 -33 l-135 -1 0 180 0 180 -68 3 -67 3 0 -383 0
-384 68 1 67 0 0 140 1 140 144 2 145 3 99 -143 100 -143 68 1 c39 0 68 4 67
10 0 9 -63 102 -166 244 l-42 59 39 17 c80 36 140 118 158 213 22 120 -12 229
-94 301 -76 67 -134 83 -311 89 l-153 4 3 -58z"/>
</g>
</svg>
