<svg id="Logo_Color" xmlns="http://www.w3.org/2000/svg" viewBox="0 0 964.45 353.99"><defs><style>.cls-1{fill:#0c1c30;}.cls-2{fill:#02afaa;}</style></defs><title>qapi-new-logo-svg</title><path class="cls-1" d="M898.28,178a95.2,95.2,0,0,1-130,34.83,92.85,92.85,0,0,1-9.83-6.62v86.58H720.67V130.28A95.17,95.17,0,0,1,863.46,48a94,94,0,0,1,20.65,16.1L865.67,96a59.73,59.73,0,0,0-19.52-18.09,60.58,60.58,0,1,0,22.15,82.76L905,97.16A94.83,94.83,0,0,1,898.28,178Z"/><rect class="cls-1" x="926.7" y="35.2" width="37.75" height="190.36"/><path class="cls-1" d="M504.8,187.82v37.75H409.52a95.09,95.09,0,0,1-68.16-28.85l18.45-31.9a60.54,60.54,0,1,0-2.64-64.74L320.5,163.61A95.15,95.15,0,1,1,492.06,178a83.54,83.54,0,0,1-6.55,9.83Z"/><path class="cls-1" d="M707.92,130.49v95.08H670.25V206.2a95.22,95.22,0,0,1-105.12,6.62,94,94,0,0,1-20.65-16.1l18.44-31.9a60.57,60.57,0,1,0-2.63-64.74l-36.68,63.53a95.16,95.16,0,1,1,184.31-33.12Z"/><g id="Symbol"><path class="cls-1" d="M207.06,274.29V354l-192-110.84A30.18,30.18,0,0,1,0,217V92.45A30.16,30.16,0,0,1,15.08,66.33L69,35.18v142A30.18,30.18,0,0,0,84.1,203.3Z"/><path class="cls-2" d="M276.09,92.45V217A30.17,30.17,0,0,1,261,243.15l-53.94,31.14v-142A30.14,30.14,0,0,0,192,106.18h0l-123-71L123,4a30.17,30.17,0,0,1,30.17,0L261,66.33A30.15,30.15,0,0,1,276.09,92.45Z"/></g></svg>